<svg xmlns="http://www.w3.org/2000/svg" viewBox="0 0 24 24" width="24" height="24">
  <path d="M12 6c4.99 0 9.27 3.11 11 7-1.02 2.3-2.71 4.25-4.74 5.49l1.42 1.42C21.44 17.49 23.35 14.9 24 12c-1.73-3.89-6-7-11-7-1.02 0-2.03.09-3 .26l1.51 1.51c.47-.11.97-.17 1.49-.17zm-1 10c-2.76 0-5-2.24-5-5 0-.54.08-1.06.21-1.55L2.1 3.45 3.51 2.1l18.38 18.38-1.41 1.41-4.45-4.45C14.24 17.88 13.15 18 12 18c-1.02 0-2.03-.09-3-.26l-1.51-1.51c-.47.11-.97.17-1.49.17-2.76 0-5-2.24-5-5 0-.54.08-1.06.21-1.55L2.1 3.45 3.51 2.1l18.38 18.38-1.41 1.41-4.45-4.45C14.24 17.88 13.15 18 12 18zM4.83 10.55c-.13.49-.21 1.01-.21 1.55 0 2.76 2.24 5 5 5 .54 0 1.06-.08 1.55-.21l-1.4-1.4c-.11.02-.23.03-.35.03-1.66 0-3-1.34-3-3 0-.12.01-.24.03-.35l-1.4-1.4zm10.15 2.3l-1.49-1.49c-.03.12-.04.24-.04.35 0 1.66 1.34 3 3 3 .12 0 .24-.01.35-.04l-1.49-1.49zm-4.34-4.34l-1.42-1.42c.47-.11.97-.17 1.49-.17 2.76 0 5 2.24 5 5 0 .54-.08 1.06-.21 1.55l-1.51-1.51c.11-.47.17-.97.17-1.49 0-1.66-1.34-3-3-3-.52 0-1.02.06-1.49.17z"/>
</svg>
